<?xml version="1.0" encoding="UTF-8" standalone="no"?>
<!DOCTYPE svg PUBLIC "-//W3C//DTD SVG 1.1//EN"
 "http://www.w3.org/Graphics/SVG/1.1/DTD/svg11.dtd">
<!-- Generated by graphviz version 2.40.1 (20161225.0304)
 -->
<!-- Title: flowchart Pages: 1 -->
<svg width="428pt" height="377pt"
 viewBox="0.00 0.00 428.49 376.80" xmlns="http://www.w3.org/2000/svg" xmlns:xlink="http://www.w3.org/1999/xlink">
<g id="graph0" class="graph" transform="scale(1 1) rotate(0) translate(4 372.8)">
<title>flowchart</title>
<polygon fill="#ffffff" stroke="transparent" points="-4,4 -4,-372.8 424.485,-372.8 424.485,4 -4,4"/>
<!-- read_data -->
<g id="node1" class="node">
<title>read_data</title>
<polygon fill="#d3d3d3" stroke="#000000" points="251.4043,-368.6019 70.5475,-368.6019 70.5475,-327.3981 251.4043,-327.3981 251.4043,-368.6019"/>
<text text-anchor="middle" x="160.9759" y="-352.2" font-family="Helvetica,sans-Serif" font-size="14.00" fill="#000000">Read raw hive weight data</text>
<text text-anchor="middle" x="160.9759" y="-335.4" font-family="Helvetica,sans-Serif" font-size="14.00" fill="#000000">(time span 1 year)</text>
</g>
<!-- pre_filter -->
<g id="node2" class="node">
<title>pre_filter</title>
<polygon fill="#d3d3d3" stroke="#000000" points="321.9277,-291.3003 .0241,-291.3003 .0241,-215.8997 321.9277,-215.8997 321.9277,-291.3003"/>
<text text-anchor="middle" x="160.9759" y="-274.6" font-family="Helvetica,sans-Serif" font-size="14.00" fill="#000000">Pre&#45;filter all weight data using</text>
<text text-anchor="middle" x="160.9759" y="-257.8" font-family="Helvetica,sans-Serif" font-size="14.00" fill="#000000">robust.filter(..., width = 31, shift = 2, trend = &quot;RM&quot;,</text>
<text text-anchor="middle" x="160.9759" y="-241" font-family="Helvetica,sans-Serif" font-size="14.00" fill="#000000">lbound = 0.2, online = FALSE, scale = &quot;QN&quot;)</text>
<text text-anchor="middle" x="160.9759" y="-224.2" font-family="Helvetica,sans-Serif" font-size="14.00" fill="#000000">Level shift detection + Signal Extraction</text>
</g>
<!-- read_data&#45;&gt;pre_filter -->
<g id="edge1" class="edge">
<title>read_data&#45;&gt;pre_filter</title>
<path fill="none" stroke="#000000" d="M160.9759,-327.0496C160.9759,-319.3932 160.9759,-310.3857 160.9759,-301.3513"/>
<polygon fill="#000000" stroke="#000000" points="164.476,-301.2103 160.9759,-291.2103 157.476,-301.2103 164.476,-301.2103"/>
</g>
<!-- alarm_level_shift -->
<g id="node7" class="node">
<title>alarm_level_shift</title>
<polygon fill="#d3d3d3" stroke="#000000" points="153.144,-180 34.8078,-180 34.8078,-144 153.144,-144 153.144,-180"/>
<text text-anchor="middle" x="93.9759" y="-157.8" font-family="Helvetica,sans-Serif" font-size="14.00" fill="#000000">Alarm: level shift</text>
</g>
<!-- pre_filter&#45;&gt;alarm_level_shift -->
<g id="edge3" class="edge">
<title>pre_filter&#45;&gt;alarm_level_shift</title>
<path fill="none" stroke="#000000" d="M133.3376,-215.8139C126.6329,-206.6475 119.6049,-197.0391 113.3733,-188.5195"/>
<polygon fill="#000000" stroke="#000000" points="116.1774,-186.4246 107.4487,-180.4196 110.5275,-190.5572 116.1774,-186.4246"/>
</g>
<!-- extracted_signal -->
<g id="node10" class="node">
<title>extracted_signal</title>
<polygon fill="#d3d3d3" stroke="#000000" points="286.5545,-180 171.3973,-180 171.3973,-144 286.5545,-144 286.5545,-180"/>
<text text-anchor="middle" x="228.9759" y="-157.8" font-family="Helvetica,sans-Serif" font-size="14.00" fill="#000000">Extracted signal</text>
</g>
<!-- pre_filter&#45;&gt;extracted_signal -->
<g id="edge2" class="edge">
<title>pre_filter&#45;&gt;extracted_signal</title>
<path fill="none" stroke="#000000" d="M189.0267,-215.8139C195.8315,-206.6475 202.9644,-197.0391 209.2889,-188.5195"/>
<polygon fill="#000000" stroke="#000000" points="212.1516,-190.5352 215.302,-180.4196 206.531,-186.3627 212.1516,-190.5352"/>
</g>
<!-- stm -->
<g id="node3" class="node">
<title>stm</title>
<polygon fill="#d3d3d3" stroke="#000000" points="132.9759,-108 78.9759,-108 78.9759,-72 132.9759,-72 132.9759,-108"/>
<text text-anchor="middle" x="105.9759" y="-85.8" font-family="Helvetica,sans-Serif" font-size="14.00" fill="#000000">STM</text>
</g>
<!-- alarm_differences -->
<g id="node9" class="node">
<title>alarm_differences</title>
<polygon fill="#d3d3d3" stroke="#000000" points="216.2657,-36 87.6861,-36 87.6861,0 216.2657,0 216.2657,-36"/>
<text text-anchor="middle" x="151.9759" y="-13.8" font-family="Helvetica,sans-Serif" font-size="14.00" fill="#000000">Alarm: differences</text>
</g>
<!-- stm&#45;&gt;alarm_differences -->
<g id="edge8" class="edge">
<title>stm&#45;&gt;alarm_differences</title>
<path fill="none" stroke="#000000" d="M117.5836,-71.8314C122.7737,-63.7079 128.9991,-53.9637 134.7184,-45.0118"/>
<polygon fill="#000000" stroke="#000000" points="137.7774,-46.7246 140.2119,-36.4133 131.8785,-42.9559 137.7774,-46.7246"/>
</g>
<!-- pca -->
<g id="node4" class="node">
<title>pca</title>
<polygon fill="#d3d3d3" stroke="#000000" points="204.9759,-108 150.9759,-108 150.9759,-72 204.9759,-72 204.9759,-108"/>
<text text-anchor="middle" x="177.9759" y="-85.8" font-family="Helvetica,sans-Serif" font-size="14.00" fill="#000000">PCA</text>
</g>
<!-- pca&#45;&gt;alarm_differences -->
<g id="edge9" class="edge">
<title>pca&#45;&gt;alarm_differences</title>
<path fill="none" stroke="#000000" d="M171.415,-71.8314C168.5732,-63.9617 165.1822,-54.5712 162.034,-45.8533"/>
<polygon fill="#000000" stroke="#000000" points="165.3136,-44.63 158.6251,-36.4133 158.7297,-47.0076 165.3136,-44.63"/>
</g>
<!-- mm_regression -->
<g id="node5" class="node">
<title>mm_regression</title>
<polygon fill="#d3d3d3" stroke="#000000" points="337.2447,-108 222.7071,-108 222.7071,-72 337.2447,-72 337.2447,-108"/>
<text text-anchor="middle" x="279.9759" y="-85.8" font-family="Helvetica,sans-Serif" font-size="14.00" fill="#000000">MM&#45;Regression</text>
</g>
<!-- alarm_health -->
<g id="node8" class="node">
<title>alarm_health</title>
<polygon fill="#d3d3d3" stroke="#000000" points="354.4328,-36 255.519,-36 255.519,0 354.4328,0 354.4328,-36"/>
<text text-anchor="middle" x="304.9759" y="-13.8" font-family="Helvetica,sans-Serif" font-size="14.00" fill="#000000">Alarm: health</text>
</g>
<!-- mm_regression&#45;&gt;alarm_health -->
<g id="edge10" class="edge">
<title>mm_regression&#45;&gt;alarm_health</title>
<path fill="none" stroke="#000000" d="M286.2845,-71.8314C288.9876,-64.0463 292.2075,-54.7729 295.2069,-46.1347"/>
<polygon fill="#000000" stroke="#000000" points="298.6086,-47.0081 298.5824,-36.4133 291.9959,-44.7119 298.6086,-47.0081"/>
</g>
<!-- prophet -->
<g id="node6" class="node">
<title>prophet</title>
<polygon fill="#d3d3d3" stroke="#000000" points="420.4941,-108 355.4577,-108 355.4577,-72 420.4941,-72 420.4941,-108"/>
<text text-anchor="middle" x="387.9759" y="-85.8" font-family="Helvetica,sans-Serif" font-size="14.00" fill="#000000">Prophet</text>
</g>
<!-- prophet&#45;&gt;alarm_health -->
<g id="edge11" class="edge">
<title>prophet&#45;&gt;alarm_health</title>
<path fill="none" stroke="#000000" d="M367.0315,-71.8314C356.9068,-63.0485 344.5982,-52.3712 333.6211,-42.8489"/>
<polygon fill="#000000" stroke="#000000" points="335.761,-40.0718 325.9136,-36.1628 331.174,-45.3595 335.761,-40.0718"/>
</g>
<!-- extracted_signal&#45;&gt;stm -->
<g id="edge4" class="edge">
<title>extracted_signal&#45;&gt;stm</title>
<path fill="none" stroke="#000000" d="M197.9378,-143.8314C180.9688,-133.8983 159.8605,-121.5422 142.1483,-111.1741"/>
<polygon fill="#000000" stroke="#000000" points="143.6337,-107.9881 133.2354,-105.9568 140.0974,-114.0292 143.6337,-107.9881"/>
</g>
<!-- extracted_signal&#45;&gt;pca -->
<g id="edge5" class="edge">
<title>extracted_signal&#45;&gt;pca</title>
<path fill="none" stroke="#000000" d="M216.1064,-143.8314C210.2924,-135.6232 203.3063,-125.7606 196.9113,-116.7323"/>
<polygon fill="#000000" stroke="#000000" points="199.6549,-114.5505 191.0186,-108.4133 193.9428,-118.5966 199.6549,-114.5505"/>
</g>
<!-- extracted_signal&#45;&gt;mm_regression -->
<g id="edge6" class="edge">
<title>extracted_signal&#45;&gt;mm_regression</title>
<path fill="none" stroke="#000000" d="M241.8454,-143.8314C247.6594,-135.6232 254.6455,-125.7606 261.0405,-116.7323"/>
<polygon fill="#000000" stroke="#000000" points="264.009,-118.5966 266.9332,-108.4133 258.2969,-114.5505 264.009,-118.5966"/>
</g>
<!-- extracted_signal&#45;&gt;prophet -->
<g id="edge7" class="edge">
<title>extracted_signal&#45;&gt;prophet</title>
<path fill="none" stroke="#000000" d="M269.0983,-143.8314C292.651,-133.166 322.3726,-119.7072 346.2049,-108.9152"/>
<polygon fill="#000000" stroke="#000000" points="347.6904,-112.0847 355.3561,-104.7712 344.8028,-105.708 347.6904,-112.0847"/>
</g>
</g>
</svg>

