<?xml version="1.0" encoding="UTF-8" standalone="no"?>
<!DOCTYPE svg PUBLIC "-//W3C//DTD SVG 1.1//EN"
 "http://www.w3.org/Graphics/SVG/1.1/DTD/svg11.dtd">
<!-- Generated by graphviz version 2.40.1 (20161225.0304)
 -->
<!-- Title: flowchart Pages: 1 -->
<svg width="486pt" height="305pt"
 viewBox="0.00 0.00 485.84 304.80" xmlns="http://www.w3.org/2000/svg" xmlns:xlink="http://www.w3.org/1999/xlink">
<g id="graph0" class="graph" transform="scale(1 1) rotate(0) translate(4 300.8)">
<title>flowchart</title>
<polygon fill="#ffffff" stroke="transparent" points="-4,4 -4,-300.8 481.8429,-300.8 481.8429,4 -4,4"/>
<!-- read_data -->
<g id="node1" class="node">
<title>read_data</title>
<polygon fill="#d3d3d3" stroke="#000000" points="332.9375,-296.6019 152.0807,-296.6019 152.0807,-255.3981 332.9375,-255.3981 332.9375,-296.6019"/>
<text text-anchor="middle" x="242.5091" y="-280.2" font-family="Helvetica,sans-Serif" font-size="14.00" fill="#000000">Read raw hive weight data</text>
<text text-anchor="middle" x="242.5091" y="-263.4" font-family="Helvetica,sans-Serif" font-size="14.00" fill="#000000">(time span 1 year)</text>
</g>
<!-- pre_filter -->
<g id="node2" class="node">
<title>pre_filter</title>
<polygon fill="#d3d3d3" stroke="#000000" points="403.4609,-219.3003 81.5573,-219.3003 81.5573,-143.8997 403.4609,-143.8997 403.4609,-219.3003"/>
<text text-anchor="middle" x="242.5091" y="-202.6" font-family="Helvetica,sans-Serif" font-size="14.00" fill="#000000">Pre&#45;filter all weight data using</text>
<text text-anchor="middle" x="242.5091" y="-185.8" font-family="Helvetica,sans-Serif" font-size="14.00" fill="#000000">robust.filter(..., width = 31, shift = 2, trend = &quot;RM&quot;,</text>
<text text-anchor="middle" x="242.5091" y="-169" font-family="Helvetica,sans-Serif" font-size="14.00" fill="#000000">lbound = 0.2, online = FALSE, scale = &quot;QN&quot;)</text>
<text text-anchor="middle" x="242.5091" y="-152.2" font-family="Helvetica,sans-Serif" font-size="14.00" fill="#000000">Level shift detection + Signal Extraction</text>
</g>
<!-- read_data&#45;&gt;pre_filter -->
<g id="edge1" class="edge">
<title>read_data&#45;&gt;pre_filter</title>
<path fill="none" stroke="#000000" d="M242.5091,-255.0496C242.5091,-247.3932 242.5091,-238.3857 242.5091,-229.3513"/>
<polygon fill="#000000" stroke="#000000" points="246.0092,-229.2103 242.5091,-219.2103 239.0092,-229.2103 246.0092,-229.2103"/>
</g>
<!-- prophet -->
<g id="node3" class="node">
<title>prophet</title>
<polygon fill="#d3d3d3" stroke="#000000" points="65.0273,-108 -.0091,-108 -.0091,-72 65.0273,-72 65.0273,-108"/>
<text text-anchor="middle" x="32.5091" y="-85.8" font-family="Helvetica,sans-Serif" font-size="14.00" fill="#000000">Prophet</text>
</g>
<!-- pre_filter&#45;&gt;prophet -->
<g id="edge3" class="edge">
<title>pre_filter&#45;&gt;prophet</title>
<path fill="none" stroke="#000000" d="M156.185,-143.9462C127.9475,-131.6293 97.848,-118.5002 74.4134,-108.2783"/>
<polygon fill="#000000" stroke="#000000" points="75.6943,-105.0185 65.1289,-104.2285 72.8956,-111.4347 75.6943,-105.0185"/>
</g>
<!-- mm_regression -->
<g id="node4" class="node">
<title>mm_regression</title>
<polygon fill="#d3d3d3" stroke="#000000" points="197.7779,-108 83.2403,-108 83.2403,-72 197.7779,-72 197.7779,-108"/>
<text text-anchor="middle" x="140.5091" y="-85.8" font-family="Helvetica,sans-Serif" font-size="14.00" fill="#000000">MM&#45;Regression</text>
</g>
<!-- pre_filter&#45;&gt;mm_regression -->
<g id="edge4" class="edge">
<title>pre_filter&#45;&gt;mm_regression</title>
<path fill="none" stroke="#000000" d="M200.4329,-143.8139C189.6075,-134.0923 178.2285,-123.8735 168.3295,-114.9838"/>
<polygon fill="#000000" stroke="#000000" points="170.5255,-112.2517 160.7467,-108.1742 165.8484,-117.4599 170.5255,-112.2517"/>
</g>
<!-- pca -->
<g id="node5" class="node">
<title>pca</title>
<polygon fill="#d3d3d3" stroke="#000000" points="269.5091,-108 215.5091,-108 215.5091,-72 269.5091,-72 269.5091,-108"/>
<text text-anchor="middle" x="242.5091" y="-85.8" font-family="Helvetica,sans-Serif" font-size="14.00" fill="#000000">PCA</text>
</g>
<!-- pre_filter&#45;&gt;pca -->
<g id="edge5" class="edge">
<title>pre_filter&#45;&gt;pca</title>
<path fill="none" stroke="#000000" d="M242.5091,-143.8139C242.5091,-135.4114 242.5091,-126.6374 242.5091,-118.6712"/>
<polygon fill="#000000" stroke="#000000" points="246.0092,-118.4195 242.5091,-108.4196 239.0092,-118.4196 246.0092,-118.4195"/>
</g>
<!-- stm -->
<g id="node6" class="node">
<title>stm</title>
<polygon fill="#d3d3d3" stroke="#000000" points="341.5091,-108 287.5091,-108 287.5091,-72 341.5091,-72 341.5091,-108"/>
<text text-anchor="middle" x="314.5091" y="-85.8" font-family="Helvetica,sans-Serif" font-size="14.00" fill="#000000">STM</text>
</g>
<!-- pre_filter&#45;&gt;stm -->
<g id="edge6" class="edge">
<title>pre_filter&#45;&gt;stm</title>
<path fill="none" stroke="#000000" d="M272.2099,-143.8139C279.415,-134.6475 286.9675,-125.0391 293.6641,-116.5195"/>
<polygon fill="#000000" stroke="#000000" points="296.6028,-118.4445 300.0308,-108.4196 291.0994,-114.1187 296.6028,-118.4445"/>
</g>
<!-- alarm_level_shift -->
<g id="node7" class="node">
<title>alarm_level_shift</title>
<polygon fill="#d3d3d3" stroke="#000000" points="477.6772,-108 359.341,-108 359.341,-72 477.6772,-72 477.6772,-108"/>
<text text-anchor="middle" x="418.5091" y="-85.8" font-family="Helvetica,sans-Serif" font-size="14.00" fill="#000000">Alarm: level shift</text>
</g>
<!-- pre_filter&#45;&gt;alarm_level_shift -->
<g id="edge2" class="edge">
<title>pre_filter&#45;&gt;alarm_level_shift</title>
<path fill="none" stroke="#000000" d="M314.8569,-143.9462C335.0413,-133.4412 356.3608,-122.3453 374.3818,-112.9662"/>
<polygon fill="#000000" stroke="#000000" points="376.2268,-115.9517 383.4815,-108.2303 372.9951,-109.7424 376.2268,-115.9517"/>
</g>
<!-- alarm_health -->
<g id="node8" class="node">
<title>alarm_health</title>
<polygon fill="#d3d3d3" stroke="#000000" points="154.966,-36 56.0522,-36 56.0522,0 154.966,0 154.966,-36"/>
<text text-anchor="middle" x="105.5091" y="-13.8" font-family="Helvetica,sans-Serif" font-size="14.00" fill="#000000">Alarm: health</text>
</g>
<!-- prophet&#45;&gt;alarm_health -->
<g id="edge7" class="edge">
<title>prophet&#45;&gt;alarm_health</title>
<path fill="none" stroke="#000000" d="M50.9301,-71.8314C59.662,-63.219 70.2408,-52.7851 79.7514,-43.4048"/>
<polygon fill="#000000" stroke="#000000" points="82.4321,-45.6769 87.094,-36.1628 77.5166,-40.6931 82.4321,-45.6769"/>
</g>
<!-- mm_regression&#45;&gt;alarm_health -->
<g id="edge8" class="edge">
<title>mm_regression&#45;&gt;alarm_health</title>
<path fill="none" stroke="#000000" d="M131.6771,-71.8314C127.8105,-63.8771 123.1885,-54.369 118.9123,-45.5723"/>
<polygon fill="#000000" stroke="#000000" points="121.9798,-43.8768 114.46,-36.4133 115.6842,-46.9371 121.9798,-43.8768"/>
</g>
<!-- alarm_differences -->
<g id="node9" class="node">
<title>alarm_differences</title>
<polygon fill="#d3d3d3" stroke="#000000" points="340.7989,-36 212.2193,-36 212.2193,0 340.7989,0 340.7989,-36"/>
<text text-anchor="middle" x="276.5091" y="-13.8" font-family="Helvetica,sans-Serif" font-size="14.00" fill="#000000">Alarm: differences</text>
</g>
<!-- pca&#45;&gt;alarm_differences -->
<g id="edge9" class="edge">
<title>pca&#45;&gt;alarm_differences</title>
<path fill="none" stroke="#000000" d="M251.0887,-71.8314C254.8449,-63.8771 259.3348,-54.369 263.4889,-45.5723"/>
<polygon fill="#000000" stroke="#000000" points="266.7087,-46.9503 267.8139,-36.4133 260.379,-43.9612 266.7087,-46.9503"/>
</g>
<!-- stm&#45;&gt;alarm_differences -->
<g id="edge10" class="edge">
<title>stm&#45;&gt;alarm_differences</title>
<path fill="none" stroke="#000000" d="M304.9201,-71.8314C300.6774,-63.7925 295.597,-54.1666 290.9131,-45.2918"/>
<polygon fill="#000000" stroke="#000000" points="293.9902,-43.6235 286.2272,-36.4133 287.7995,-46.8908 293.9902,-43.6235"/>
</g>
</g>
</svg>

